<?xml version="1.0" standalone="no"?><!DOCTYPE svg PUBLIC "-//W3C//DTD SVG 1.1//EN" "http://www.w3.org/Graphics/SVG/1.1/DTD/svg11.dtd"><svg t="1663658955132" class="icon" viewBox="0 0 1024 1024" version="1.1" xmlns="http://www.w3.org/2000/svg" p-id="8397" xmlns:xlink="http://www.w3.org/1999/xlink" width="32" height="32"><path d="M1020.220508 489.202535c-8.501838-178.538589-119.025726-301.815234-119.025726-301.815234C726.907112-16.6568 505.859335 0.346875 505.859335 0.346875c-238.051452-8.501838-382.582691 174.28767-382.58269 174.28767C21.254594 293.660271 12.752756 404.184159 12.752756 404.184159c-42.509188 182.789508 46.760107 344.324421 46.760107 344.324422 68.014701 123.276645 140.28032 182.789508 259.306046 238.051452 119.025726 55.261944 297.564315 46.760107 408.088203-8.501838 110.523888-55.261944 178.538589-119.025726 242.302371-233.800533 59.512863-119.025726 51.011025-255.055127 51.011025-255.055127z m-561.121279 416.590041s-187.040426-8.501838-289.062478-191.291345c0 0-89.269294-127.527564-51.011025-284.811559C153.033076 272.405677 238.051452 212.892814 255.055127 195.889139c17.003675-17.003675 127.527564-80.767457 199.793183-80.767457v187.040427H378.331772s-106.27297 8.501838-110.523889 127.527563v174.28767S272.058802 710.250312 382.582691 723.003068h76.516538v182.789508z m-63.763782-293.313396s-17.003675 4.250919-21.254594-17.003675v-165.785833s4.250919-17.003675 17.003675-17.003675h233.800533s21.254594-4.250919 21.254594 17.003675v161.534914s4.250919 25.505513-12.752756 21.254594H395.335447z m450.597391 119.025726c-76.516538 114.774807-216.796858 170.036751-284.811559 174.28767V723.003068h89.269295s93.520213-17.003675 97.771132-119.025726V408.435078s-17.003675-97.771132-119.025726-102.022051h-68.014701V115.121682s119.025726 8.501838 212.54594 97.771132 119.025726 174.28767 131.778482 225.298696c8.501838 42.509188 17.003675 178.538589-59.512863 293.313396z" fill="#982C30" p-id="8398"></path></svg>